<svg version="1.0" xmlns="http://www.w3.org/2000/svg" width="682.667" height="682.667" viewBox="0 0 512 512"><path d="M236.9.4c-.2.2-3.8.6-7.9 1-38.8 3.4-80.7 18.1-114.5 40.3-11.8 7.8-15.1 10.2-25 18.3-7 5.7-29.5 29.1-35.1 36.5-6.7 8.8-17 24-20.5 30.1-11.8 21-21.1 44.7-26.4 66.9-2.4 9.9-2.9 12.4-4 20-.4 2.2-.8 4.7-1 5.5-1.9 7-2.7 51.4-1.1 65 1.2 11.1 3.4 23.3 6.5 36.1C24.4 389.7 74 451.8 139 484.5c27.1 13.6 48.2 19.9 87 26.1 2.5.4 64.4.9 137.5 1l133 .3 4.3-2.1c11.9-5.8 14.6-22.2 5.3-31.7-6-6.2-5.5-6.1-60.3-6.1h-50l9.8-7.1c14.5-10.5 18.6-14 31.9-27.3 13.9-14 15.1-15.4 24.4-28 15.9-21.3 28.1-44.9 36.9-71.1 2.7-8.2 4.9-15.5 5.7-19.5.2-.8.8-3.5 1.4-6 1.1-4.9 1.5-7 3.1-17.4 3.5-21.9 3.5-58.8.1-79.6-9.1-55.7-32.7-102.6-70.6-140.5-14.8-14.9-16-15.9-28.7-25.3-19.7-14.5-39-25-61.3-33.5-18.5-7-41.8-12.6-63-15.2-5.4-.7-48-1.6-48.6-1.1zm45.1 41c1.9.2 4.8.7 6.4 1 1.6.3 5 .9 7.5 1.3 5.8.9 4.7.7 11.1 2.2 62.8 14.9 114 55.5 142.6 113.1 11 22.3 18.4 47.7 21.1 73 1.5 13.8.8 45.5-1.3 58-3.9 24.2-10.2 43.9-20.3 64-19.8 39.5-50.2 70.8-88.8 91.8-8.9 4.8-26.5 12.7-30.8 13.8-.5.1-3 .9-5.5 1.7-21.9 7.4-41.6 10.2-70 10.2-17.7-.1-22.8-.5-36.9-3-69.8-12.2-128.2-57.2-157.4-121.1-8-17.6-15-41.3-17.2-58.4-.4-3-.9-6.4-1.2-7.5-.2-1.1-.6-10.6-.8-21-.3-24.1 1-37 5.7-56 1.1-4.4 2.1-8.7 2.3-9.5.5-2.8 5.6-17.4 7-20.7.8-1.7 1.5-3.4 1.5-3.7 0-.4 2.4-5.5 5.3-11.4 12.2-24.4 24.8-41.6 44.7-60.7 33.1-31.7 78.7-52.6 125-57.1 3.6-.4 6.7-.8 6.9-1 .5-.4 39 .4 43.1 1z"/><path d="M243 77.5c-11.1 2.5-20.6 7.8-29 16.4-12.8 12.9-18.3 26.7-17.6 44 .7 16.7 6.7 30.3 18.4 41.2 11.6 10.9 23.3 15.9 38.7 16.5 5.6.2 11.5-.2 15.5-1.1 22.1-5.1 40.4-23.4 45.5-45.5 1.9-8.7 1.3-22.6-1.4-31-5.9-18.3-21-33.4-39.1-39.1-8.5-2.7-22.5-3.3-31-1.4zm23.6 41.7c1.9 1.3 4.7 4.1 6.2 6.2 2.3 3.4 2.7 4.9 2.6 10.6 0 7.4-2.1 11.9-7.1 15.6-13.8 10.1-32.3.8-32.3-16.2 0-7.1 6.7-16.3 13.4-18.4 4.9-1.5 13.3-.4 17.2 2.2zM126 161.4c-18.5 5.5-30.2 15.5-38.7 32.9-4 8.2-5.6 17.1-5 27.7 1 15.6 5.7 26.7 16.3 38 29.9 31.7 82.5 21.6 99-19.1 3.2-7.9 3.9-11.7 3.8-22.9-.2-24.5-15.4-46.3-38.3-55.1-7.2-2.7-9.6-3.1-20.1-3.5-7.6-.2-11 .2-17 2zm22 38.6c11.7 3.3 17.2 18.2 10.6 29.4-3.5 5.9-11.5 10.1-18.1 9.4-9.9-1.2-17-8-18.2-17.5-1.7-14.7 11.2-25.4 25.7-21.3zM352 162c-26 8.7-42.4 32-41.5 58.8.6 16.7 5.9 28.8 17.9 40.7 19.5 19.3 49.3 22.8 72.7 8.6 32.4-19.7 38.6-64.7 12.7-92.1-15.9-16.8-40.6-23.2-61.8-16zm27 39.2c16.4 8.3 13.7 32.1-4.1 36.9-5.6 1.5-10.3.7-15.7-2.9-4.5-2.8-9.2-10.5-9.2-15 0-15.6 15.6-25.8 29-19zM249.9 236.9c-14.5 4.7-18.3 24-6.7 34.3 9.4 8.4 25.2 5 30.7-6.6 5.9-12.6-2.4-27.1-16-28.1-3-.3-6.6-.1-8 .4zM176.8 293.5c-.2.2-1.5.6-2.8.8-5.6 1.1-8.8 2.1-14.4 4.8-17 8.2-28.8 23.3-32.6 41.7-4.1 20.4 1.6 39.8 16.1 54.3 12.4 12.5 28.1 18.6 45.4 17.7 46.5-2.5 72.4-54.4 46.5-93.2-11-16.3-28-25.6-48.2-26.2-5.3-.1-9.8-.1-10 .1zm14.4 40.5c10.9 3.1 17 16.4 12.4 27.1-1.9 4.5-8.6 10.5-12.8 11.3-7.7 1.5-15.2-.7-20.2-6-3.1-3.4-5.5-10.7-5-15.3.9-7.4 6.2-14.2 13-16.6 4.7-1.7 7.7-1.8 12.6-.5zM315 294.1c-2.5.5-7.4 2.1-11 3.6-22.6 9.3-37 30.4-37.2 54.4-.1 10.7 1.4 17.2 6.2 27.4 10.2 21.5 33.1 34.8 57 33.2 11.4-.8 20.4-3.7 29.4-9.8 17.1-11.4 26.8-29.3 26.8-49.4.1-23.6-12.5-43.9-33.3-53.8-5.2-2.5-11-4.8-12.9-5.2-5.6-1.1-20.1-1.3-25-.4zm17.3 40c10.9 3 17 16.3 12.4 27-5.7 13.2-23.8 15.8-33.1 4.8-3.8-4.5-4.9-7.5-4.8-13.2.2-8.4 5.2-15.5 12.8-18.2 4.7-1.7 7.7-1.8 12.7-.4z"/></svg>