<svg aria-hidden="true" style="width:0;height:0;position:absolute;overflow:hidden" xmlns="http://www.w3.org/2000/svg"><defs><symbol id="search" viewBox="0 0 32 32"><path fill="none" stroke-linejoin="round" stroke-linecap="round" stroke-width="2.667" d="M14.667 25.333c5.891 0 10.667-4.776 10.667-10.667S20.558 3.999 14.667 3.999 4 8.775 4 14.666s4.776 10.667 10.667 10.667zM28 28l-5.8-5.8"/></symbol><symbol id="logo" viewBox="0 0 32 32"><path fill="none" stroke-linejoin="round" stroke-linecap="round" stroke-width="2.667" d="M26.427 2.667H5.574a2.907 2.907 0 0 0-2.907 2.907v20.853a2.907 2.907 0 0 0 2.907 2.907h20.853a2.907 2.907 0 0 0 2.907-2.907V5.574a2.907 2.907 0 0 0-2.907-2.907zm-17.094 0v26.667M22.667 2.667v26.667M2.667 16h26.667M2.667 9.333h6.667M2.667 22.667h6.667m13.333 0h6.667M22.667 9.333h6.667"/></symbol><symbol id="heart" viewBox="0 0 34 32"><path fill="#ff6b08" style="fill:var(--color2,#ff6b08)" d="m17.231 31.705-2.412-2.412C5.859 21.367.001 16.025.001 9.478.001 4.136 4.136.001 9.478.001c2.929 0 5.858 1.378 7.754 3.618 1.895-2.24 4.825-3.618 7.754-3.618 5.342 0 9.477 4.135 9.477 9.477 0 6.548-5.858 11.889-14.818 19.815l-2.412 2.412z"/></symbol><symbol id="close" viewBox="0 0 32 32"><path stroke-width="2.133" d="m8.533 8.533 14.933 14.933m-14.933.001L23.466 8.534"/></symbol><symbol id="arrow" viewBox="0 0 32 32"><path d="M2.976.384C1.728.576.608 1.696.384 3.008c-.096.608-.096 25.408 0 26.016a3.184 3.184 0 0 0 2.112 2.496c.416.16.576.16 13.504.16 12.544 0 13.12-.032 13.536-.128.96-.32 1.76-1.12 2.048-2.08.096-.352.096-1.696.096-13.472 0-12.928 0-13.056-.128-13.504-.288-.864-1.12-1.728-2.048-2.016-.32-.128-1.088-.128-13.216-.128C9.184.32 3.232.352 2.976.384zM16.8 10.624c.192.224 2.592 2.304 5.312 4.704 3.232 2.816 4.96 4.384 5.024 4.512.288.608.192 1.248-.224 1.664-.224.224-.32.256-.576.256-.16 0-.352-.032-.448-.096l-4.96-4.288c-2.656-2.336-4.864-4.224-4.896-4.224l-4.352 3.776c-6.112 5.344-5.504 4.832-5.888 4.832s-.672-.192-.864-.576c-.16-.288-.16-.96 0-1.312.064-.16 1.504-1.472 4.992-4.512l5.344-4.704c.384-.352.448-.384.768-.384s.384.032.768.352z"/></symbol><symbol id="loader" viewBox="0 0 32 32"><path fill="#5b5d6e" style="fill:var(--color1,#5b5d6e)" d="M27.038 16c0 6.096-4.942 11.038-11.038 11.038S4.963 22.096 4.963 16 9.905 4.963 16 4.963 27.038 9.905 27.038 16z"/><path fill="#464655" style="fill:var(--color2,#464655)" d="M25.931 16c0 5.485-4.446 9.931-9.931 9.931S6.069 21.485 6.069 16c0-5.485 4.446-9.931 9.931-9.931s9.931 4.446 9.931 9.931z"/><path fill="#ff6b08" style="fill:var(--color3,#ff6b08)" d="M16 0C7.163 0 0 7.163 0 16s7.163 16 16 16 16-7.163 16-16S24.837 0 16 0zm0 2.188a4.438 4.438 0 0 1 0 8.876 4.438 4.438 0 0 1 0-8.876zm-8.812 18.25a4.438 4.438 0 0 1 0-8.876 4.438 4.438 0 0 1 0 8.876zM16 29.25a4.438 4.438 0 1 1 .021-8.812L16 20.436c2.214.272 3.912 2.141 3.912 4.406s-1.698 4.134-3.89 4.404l-.021.002zm8.813-8.812a4.438 4.438 0 0 1 0-8.876 4.438 4.438 0 0 1 0 8.876z"/><path fill="#c7cfe2" style="fill:var(--color4,#c7cfe2)" d="M18.206 16a2.206 2.206 0 1 1-4.413 0 2.206 2.206 0 0 1 4.413 0z"/><path fill="#5b5d6e" style="fill:var(--color1,#5b5d6e)" d="M17.106 16a1.106 1.106 0 1 1-2.212 0 1.106 1.106 0 0 1 2.212 0z"/><path fill="#cf3b00" style="fill:var(--color4,#cf3b00)" d="m12.688 13.25-.375-.188-6.625-6.625a.564.564 0 1 1 .749-.754l.001.003 6.625 6.625a.563.563 0 0 1-.373.938h-.002zm13.25 13.25c-.125 0-.313-.063-.375-.188l-6.625-6.625a.564.564 0 1 1 .749-.754l.001.003 6.625 6.625a.563.563 0 0 1-.373.938h-.002zm-6.625-13.25c-.125 0-.313-.063-.375-.188a.469.469 0 0 1 0-.75l6.625-6.625a.564.564 0 1 1 .754.749l-.003.001-6.625 6.625-.375.188zM6.063 26.5l-.375-.188a.469.469 0 0 1 0-.75l6.625-6.625a.564.564 0 1 1 .754.749l-.003.001-6.625 6.625c-.063.125-.25.188-.375.188z"/></symbol><symbol id="sun" viewBox="0 0 32 32"><path d="M16 26a2 2 0 0 1 2 2v2a2 2 0 1 1-4 0v-2a2 2 0 0 1 2-2zm0-20a2 2 0 0 1-2-2V2a2 2 0 1 1 4 0v2a2 2 0 0 1-2 2zm14 8a2 2 0 1 1 0 4h-2a2 2 0 1 1 0-4h2zM6 16a2 2 0 0 1-2 2H2a2 2 0 1 1 0-4h2a2 2 0 0 1 2 2zm19.899 7.071 1.414 1.414a2 2 0 1 1-2.828 2.828l-1.414-1.414a2 2 0 1 1 2.828-2.828zM6.101 8.929 4.687 7.515a2 2 0 1 1 2.828-2.828l1.414 1.414a2 2 0 1 1-2.828 2.828zm19.798 0a2 2 0 1 1-2.828-2.828l1.414-1.414a2 2 0 1 1 2.828 2.828l-1.414 1.414zM6.101 23.071a2 2 0 1 1 2.828 2.828l-1.414 1.414a2 2 0 1 1-2.828-2.828l1.414-1.414zM16 8a8 8 0 1 0 0 16 8 8 0 0 0 0-16zm0 13a5 5 0 1 1 .001-10.001A5 5 0 0 1 16 21z"/></symbol><symbol id="moon" viewBox="0 0 32 32"><path d="M16.81 31.664C7.719 31.664.32 24.266.32 15.171.32 8.873 3.827 3.216 9.469.406a.66.66 0 0 1 .886.88 15.011 15.011 0 0 0-1.552 6.685c0 8.365 6.806 15.171 15.171 15.171 2.368 0 4.64-.534 6.752-1.584a.66.66 0 0 1 .758.122.652.652 0 0 1 .125.758c-2.794 5.69-8.464 9.226-14.8 9.226z"/></symbol></defs></svg>