<svg aria-hidden="true" style="width:0;height:0;position:absolute;overflow:hidden" xmlns="http://www.w3.org/2000/svg"><defs><symbol id="search" viewBox="0 0 32 32"><path fill="none" stroke="#fff" style="stroke:var(--color1,#fff)" stroke-linejoin="round" stroke-linecap="round" stroke-width="2.667" d="M14.667 25.333c5.891 0 10.667-4.776 10.667-10.667S20.558 3.999 14.667 3.999v0C8.776 3.999 4 8.775 4 14.666s4.776 10.667 10.667 10.667v0zM28 28l-5.8-5.8"/></symbol><symbol id="logo" viewBox="0 0 32 32"><path fill="none" stroke="#fff" style="stroke:var(--color1,#fff)" stroke-linejoin="round" stroke-linecap="round" stroke-width="2.667" d="M26.427 2.667H5.574a2.907 2.907 0 0 0-2.907 2.907v20.853a2.907 2.907 0 0 0 2.907 2.907v0h20.853a2.907 2.907 0 0 0 2.907-2.907v0V5.574a2.907 2.907 0 0 0-2.907-2.907v0zm-17.094 0v26.667M22.667 2.667v26.667M2.667 16h26.667M2.667 9.333h6.667M2.667 22.667h6.667m13.333 0h6.667M22.667 9.333h6.667"/></symbol><symbol id="heart" viewBox="0 0 34 32"><path fill="#ff6b08" style="fill:var(--color2,#ff6b08)" d="m17.231 31.705-2.412-2.412C5.859 21.367.001 16.025.001 9.478.001 4.136 4.136.001 9.478.001c2.929 0 5.858 1.378 7.754 3.618 1.895-2.24 4.825-3.618 7.754-3.618 5.342 0 9.477 4.135 9.477 9.477 0 6.548-5.858 11.889-14.818 19.815l-2.412 2.412z"/></symbol><symbol id="close" viewBox="0 0 32 32"><path stroke-width="2.133" d="m8.533 8.533 14.933 14.933m-14.933.001L23.466 8.534"/></symbol><symbol id="arrow" viewBox="0 0 16 16"><path stroke="#000" stroke-width="1.333" stroke-linecap="round" stroke-linejoin="round" d="M12.667 8H3.333M8 12.667 3.333 8 8 3.333"/></symbol><symbol id="loader" viewBox="0 0 32 32"><path fill="#5b5d6e" style="fill:var(--color1,#5b5d6e)" d="M27.038 16c0 6.096-4.942 11.038-11.038 11.038S4.963 22.096 4.963 16 9.905 4.963 16 4.963 27.038 9.905 27.038 16z"/><path fill="#464655" style="fill:var(--color2,#464655)" d="M25.931 16c0 5.485-4.446 9.931-9.931 9.931S6.069 21.485 6.069 16c0-5.485 4.446-9.931 9.931-9.931s9.931 4.446 9.931 9.931z"/><path fill="#ff6b08" style="fill:var(--color3,#ff6b08)" d="M16 0C7.163 0 0 7.163 0 16s7.163 16 16 16 16-7.163 16-16S24.837 0 16 0zm0 2.188a4.438 4.438 0 0 1 0 8.876 4.438 4.438 0 0 1 0-8.876zm-8.812 18.25a4.438 4.438 0 0 1 0-8.876 4.438 4.438 0 0 1 0 8.876zM16 29.25a4.438 4.438 0 1 1 .021-8.812L16 20.436c2.214.272 3.912 2.141 3.912 4.406s-1.698 4.134-3.89 4.404l-.021.002zm8.813-8.812a4.438 4.438 0 0 1 0-8.876 4.438 4.438 0 0 1 0 8.876z"/><path fill="#c7cfe2" style="fill:var(--color4,#c7cfe2)" d="M18.206 16a2.206 2.206 0 1 1-4.413 0 2.206 2.206 0 0 1 4.413 0z"/><path fill="#5b5d6e" style="fill:var(--color1,#5b5d6e)" d="M17.106 16a1.106 1.106 0 1 1-2.212 0 1.106 1.106 0 0 1 2.212 0z"/><path fill="#cf3b00" style="fill:var(--color4,#cf3b00)" d="m12.688 13.25-.375-.188-6.625-6.625a.564.564 0 1 1 .749-.754l.001.003 6.625 6.625a.563.563 0 0 1-.373.938h-.002zm13.25 13.25c-.125 0-.313-.063-.375-.188l-6.625-6.625a.564.564 0 1 1 .749-.754l.001.003 6.625 6.625a.563.563 0 0 1-.373.938h-.002zm-6.625-13.25c-.125 0-.313-.063-.375-.188a.469.469 0 0 1 0-.75l6.625-6.625a.564.564 0 1 1 .754.749l-.003.001-6.625 6.625-.375.188zM6.063 26.5l-.375-.188a.469.469 0 0 1 0-.75l6.625-6.625a.564.564 0 1 1 .754.749l-.003.001-6.625 6.625c-.063.125-.25.188-.375.188z"/></symbol></defs></svg>