<svg aria-hidden="true" style="width:0;height:0;position:absolute;overflow:hidden" xmlns="http://www.w3.org/2000/svg"><defs><symbol id="search" viewBox="0 0 32 32"><path fill="none" stroke="#fff" style="stroke:var(--color1,#fff)" stroke-linejoin="round" stroke-linecap="round" stroke-width="2.667" d="M14.667 25.333c5.891 0 10.667-4.776 10.667-10.667S20.558 3.999 14.667 3.999v0C8.776 3.999 4 8.775 4 14.666s4.776 10.667 10.667 10.667v0zM28 28l-5.8-5.8"/></symbol><symbol id="logo" viewBox="0 0 32 32"><path fill="none" stroke="#fff" style="stroke:var(--color1,#fff)" stroke-linejoin="round" stroke-linecap="round" stroke-width="2.667" d="M26.427 2.667H5.574a2.907 2.907 0 0 0-2.907 2.907v20.853a2.907 2.907 0 0 0 2.907 2.907v0h20.853a2.907 2.907 0 0 0 2.907-2.907v0V5.574a2.907 2.907 0 0 0-2.907-2.907v0zm-17.094 0v26.667M22.667 2.667v26.667M2.667 16h26.667M2.667 9.333h6.667M2.667 22.667h6.667m13.333 0h6.667M22.667 9.333h6.667"/></symbol><symbol id="heart" viewBox="0 0 34 32"><path fill="#ff6b08" style="fill:var(--color2,#ff6b08)" d="m17.231 31.705-2.412-2.412C5.859 21.367.001 16.025.001 9.478.001 4.136 4.136.001 9.478.001c2.929 0 5.858 1.378 7.754 3.618 1.895-2.24 4.825-3.618 7.754-3.618 5.342 0 9.477 4.135 9.477 9.477 0 6.548-5.858 11.889-14.818 19.815l-2.412 2.412z"/></symbol><symbol id="close" viewBox="0 0 32 32"><path stroke-width="2.133" d="m8.533 8.533 14.933 14.933m-14.933.001L23.466 8.534"/></symbol><symbol id="arrow" viewBox="0 0 16 16"><path stroke="#000" stroke-width="1.333" stroke-linecap="round" stroke-linejoin="round" d="M12.667 8H3.333M8 12.667 3.333 8 8 3.333"/></symbol><svg version="1.1" id="Layer_1" xmlns="http://www.w3.org/2000/svg" xmlns:xlink="http://www.w3.org/1999/xlink" x="0" y="0" viewBox="0 0 512 512" style="enable-background:new 0 0 512 512" xml:space="preserve"><circle style="fill:#5b5d6e" cx="256" cy="256" r="176.552"/><circle style="fill:#464655" cx="256" cy="256" r="158.897"/><path style="fill:#afb9d2" d="M256 0C114.615 0 0 114.615 0 256s114.615 256 256 256 256-114.615 256-256S397.385 0 256 0zm0 35.31c39.003 0 70.621 31.618 70.621 70.621S295.003 176.552 256 176.552s-70.621-31.618-70.621-70.621S216.998 35.31 256 35.31zM114.759 326.621c-39.002 0-70.621-31.618-70.621-70.621s31.618-70.621 70.621-70.621S185.38 216.997 185.38 256s-31.619 70.621-70.621 70.621zM256 467.862c-39.002 0-70.621-31.618-70.621-70.621S216.997 326.62 256 326.62s70.621 31.618 70.621 70.621-31.618 70.621-70.621 70.621zm141.241-141.241c-39.002 0-70.621-31.618-70.621-70.621s31.618-70.621 70.621-70.621 70.621 31.618 70.621 70.621-31.618 70.621-70.621 70.621z"/><circle style="fill:#c7cfe2" cx="256" cy="256" r="35.31"/><circle style="fill:#5b5d6e" cx="256" cy="256" r="17.655"/><path style="fill:#c7cfe2" d="M203.034 211.862a8.796 8.796 0 0 1-6.241-2.586L90.862 103.345a8.825 8.825 0 0 1 0-12.483 8.825 8.825 0 0 1 12.483 0l105.931 105.931a8.825 8.825 0 0 1 0 12.483 8.8 8.8 0 0 1-6.242 2.586zM414.897 423.724a8.796 8.796 0 0 1-6.241-2.586L302.724 315.207c-3.448-3.448-3.448-9.035 0-12.483s9.035-3.448 12.483 0l105.931 105.931a8.825 8.825 0 0 1 0 12.483 8.8 8.8 0 0 1-6.241 2.586zM308.966 211.862a8.796 8.796 0 0 1-6.241-2.586 8.825 8.825 0 0 1 0-12.483l105.93-105.932c3.448-3.448 9.035-3.448 12.483 0s3.448 9.035 0 12.483l-105.93 105.932a8.803 8.803 0 0 1-6.242 2.586zM97.103 423.724a8.796 8.796 0 0 1-6.241-2.586 8.825 8.825 0 0 1 0-12.483l105.931-105.931c3.448-3.448 9.035-3.448 12.483 0s3.448 9.035 0 12.483l-105.93 105.931a8.804 8.804 0 0 1-6.243 2.586z"/></svg></defs></svg>