<?xml version="1.0" standalone="no"?>
<!DOCTYPE svg PUBLIC "-//W3C//DTD SVG 20010904//EN"
 "http://www.w3.org/TR/2001/REC-SVG-20010904/DTD/svg10.dtd">
<svg version="1.0" xmlns="http://www.w3.org/2000/svg"
 width="512.000000pt" height="512.000000pt" viewBox="0 0 512.000000 512.000000"
 preserveAspectRatio="xMidYMid meet">
<metadata>
Created by potrace 1.14, written by Peter Selinger 2001-2017
</metadata>
<g transform="translate(0.000000,512.000000) scale(0.100000,-0.100000)"
fill="#000000" stroke="none">
<path d="M2369 5116 c-2 -2 -38 -6 -79 -10 -388 -34 -807 -181 -1145 -403
-118 -78 -151 -102 -250 -183 -70 -57 -295 -291 -351 -365 -67 -88 -170 -240
-205 -301 -118 -210 -211 -447 -264 -669 -24 -99 -29 -124 -40 -200 -4 -22 -8
-47 -10 -55 -19 -70 -27 -514 -11 -650 12 -111 34 -233 65 -361 165 -696 661
-1317 1311 -1644 271 -136 482 -199 870 -261 25 -4 644 -9 1375 -10 l1330 -3
43 21 c119 58 146 222 53 317 -60 62 -55 61 -603 61 l-500 0 98 71 c145 105
186 140 319 273 139 140 151 154 244 280 159 213 281 449 369 711 27 82 49
155 57 195 2 8 8 35 14 60 11 49 15 70 31 174 35 219 35 588 1 796 -91 557
-327 1026 -706 1405 -148 149 -160 159 -287 253 -197 145 -390 250 -613 335
-185 70 -418 126 -630 152 -54 7 -480 16 -486 11z m451 -410 c19 -2 48 -7 64
-10 16 -3 50 -9 75 -13 58 -9 47 -7 111 -22 628 -149 1140 -555 1426 -1131
110 -223 184 -477 211 -730 15 -138 8 -455 -13 -580 -39 -242 -102 -439 -203
-640 -198 -395 -502 -708 -888 -918 -89 -48 -265 -127 -308 -138 -5 -1 -30 -9
-55 -17 -219 -74 -416 -102 -700 -102 -177 1 -228 5 -369 30 -698 122 -1282
572 -1574 1211 -80 176 -150 413 -172 584 -4 30 -9 64 -12 75 -2 11 -6 106 -8
210 -3 241 10 370 57 560 11 44 21 87 23 95 5 28 56 174 70 207 8 17 15 34 15
37 0 4 24 55 53 114 122 244 248 416 447 607 331 317 787 526 1250 571 36 4
67 8 69 10 5 4 390 -4 431 -10z"/>
<path d="M2430 4345 c-111 -25 -206 -78 -290 -164 -128 -129 -183 -267 -176
-440 7 -167 67 -303 184 -412 116 -109 233 -159 387 -165 56 -2 115 2 155 11
221 51 404 234 455 455 19 87 13 226 -14 310 -59 183 -210 334 -391 391 -85
27 -225 33 -310 14z m236 -417 c19 -13 47 -41 62 -62 23 -34 27 -49 26 -106 0
-74 -21 -119 -71 -156 -138 -101 -323 -8 -323 162 0 71 67 163 134 184 49 15
133 4 172 -22z"/>
<path d="M1260 3506 c-185 -55 -302 -155 -387 -329 -40 -82 -56 -171 -50 -277
10 -156 57 -267 163 -380 299 -317 825 -216 990 191 32 79 39 117 38 229 -2
245 -154 463 -383 551 -72 27 -96 31 -201 35 -76 2 -110 -2 -170 -20z m220
-386 c117 -33 172 -182 106 -294 -35 -59 -115 -101 -181 -94 -99 12 -170 80
-182 175 -17 147 112 254 257 213z"/>
<path d="M3520 3500 c-260 -87 -424 -320 -415 -588 6 -167 59 -288 179 -407
195 -193 493 -228 727 -86 324 197 386 647 127 921 -159 168 -406 232 -618
160z m270 -392 c164 -83 137 -321 -41 -369 -56 -15 -103 -7 -157 29 -45 28
-92 105 -92 150 0 156 156 258 290 190z"/>
<path d="M2499 2751 c-145 -47 -183 -240 -67 -343 94 -84 252 -50 307 66 59
126 -24 271 -160 281 -30 3 -66 1 -80 -4z"/>
<path d="M1768 2185 c-2 -2 -15 -6 -28 -8 -56 -11 -88 -21 -144 -48 -170 -82
-288 -233 -326 -417 -41 -204 16 -398 161 -543 124 -125 281 -186 454 -177
465 25 724 544 465 932 -110 163 -280 256 -482 262 -53 1 -98 1 -100 -1z m144
-405 c109 -31 170 -164 124 -271 -19 -45 -86 -105 -128 -113 -77 -15 -152 7
-202 60 -31 34 -55 107 -50 153 9 74 62 142 130 166 47 17 77 18 126 5z"/>
<path d="M3150 2179 c-25 -5 -74 -21 -110 -36 -226 -93 -370 -304 -372 -544
-1 -107 14 -172 62 -274 102 -215 331 -348 570 -332 114 8 204 37 294 98 171
114 268 293 268 494 1 236 -125 439 -333 538 -52 25 -110 48 -129 52 -56 11
-201 13 -250 4z m173 -400 c109 -30 170 -163 124 -270 -57 -132 -238 -158
-331 -48 -38 45 -49 75 -48 132 2 84 52 155 128 182 47 17 77 18 127 4z"/>
</g>
</svg>
