<svg aria-hidden="true" style="position: absolute; width: 0; height: 0; overflow: hidden;" version="1.1" xmlns="http://www.w3.org/2000/svg" xmlns:xlink="http://www.w3.org/1999/xlink">
<defs>
<symbol id="search" viewBox="0 0 32 32">
<path fill="none" stroke="#fff" style="stroke: var(--color1, #fff)" stroke-linejoin="round" stroke-linecap="round" stroke-miterlimit="4" stroke-width="2.6667" d="M14.667 25.333c5.891 0 10.667-4.776 10.667-10.667s-4.776-10.667-10.667-10.667v0c-5.891 0-10.667 4.776-10.667 10.667s4.776 10.667 10.667 10.667v0zM28 28l-5.8-5.8"></path>
</symbol>
<symbol id="logo" viewBox="0 0 32 32">
<path fill="none" stroke="#fff" style="stroke: var(--color1, #fff)" stroke-linejoin="round" stroke-linecap="round" stroke-miterlimit="4" stroke-width="2.6667" d="M26.427 2.667h-20.853c-1.605 0-2.907 1.301-2.907 2.907v0 20.853c0 1.605 1.301 2.907 2.907 2.907v0h20.853c1.605 0 2.907-1.301 2.907-2.907v0-20.853c0-1.605-1.301-2.907-2.907-2.907v0zM9.333 2.667v26.667M22.667 2.667v26.667M2.667 16h26.667M2.667 9.333h6.667M2.667 22.667h6.667M22.667 22.667h6.667M22.667 9.333h6.667"></path>
</symbol>
<symbol id="heart" viewBox="0 0 34 32">
<path fill="#ff6b08" style="fill: var(--color2, #ff6b08)" d="M17.231 31.705l-2.412-2.412c-8.96-7.926-14.818-13.268-14.818-19.815 0-5.342 4.135-9.477 9.477-9.477 2.929 0 5.858 1.378 7.754 3.618 1.895-2.24 4.825-3.618 7.754-3.618 5.342 0 9.477 4.135 9.477 9.477 0 6.548-5.858 11.889-14.818 19.815l-2.412 2.412z"></path>
</symbol>
<symbol id="close" viewBox="0 0 32 32">
<path stroke-linejoin="miter" stroke-linecap="butt" stroke-miterlimit="4" stroke-width="2.1333" d="M8.533 8.533l14.933 14.933M8.533 23.467l14.933-14.933"></path>
</symbol>
<symbol id="arrow" viewBox="0 0 32 32">
<path d="M2.976 0.384c-1.248 0.192-2.368 1.312-2.592 2.624-0.096 0.608-0.096 25.408 0 26.016 0.192 1.152 0.992 2.112 2.112 2.496 0.416 0.16 0.576 0.16 13.504 0.16 12.544 0 13.12-0.032 13.536-0.128 0.96-0.32 1.76-1.12 2.048-2.080 0.096-0.352 0.096-1.696 0.096-13.472 0-12.928 0-13.056-0.128-13.504-0.288-0.864-1.12-1.728-2.048-2.016-0.32-0.128-1.088-0.128-13.216-0.128-7.104-0.032-13.056 0-13.312 0.032zM16.8 10.624c0.192 0.224 2.592 2.304 5.312 4.704 3.232 2.816 4.96 4.384 5.024 4.512 0.288 0.608 0.192 1.248-0.224 1.664-0.224 0.224-0.32 0.256-0.576 0.256-0.16 0-0.352-0.032-0.448-0.096l-4.96-4.288c-2.656-2.336-4.864-4.224-4.896-4.224l-4.352 3.776c-6.112 5.344-5.504 4.832-5.888 4.832s-0.672-0.192-0.864-0.576c-0.16-0.288-0.16-0.96 0-1.312 0.064-0.16 1.504-1.472 4.992-4.512l5.344-4.704c0.384-0.352 0.448-0.384 0.768-0.384s0.384 0.032 0.768 0.352z"></path>
</symbol>
<symbol id="loader" viewBox="0 0 32 32">
<path fill="#5b5d6e" style="fill: var(--color1, #5b5d6e)" d="M27.038 16c0 6.096-4.942 11.038-11.038 11.038s-11.037-4.942-11.037-11.038c0-6.096 4.942-11.037 11.037-11.037s11.038 4.942 11.038 11.037z"></path>
<path fill="#464655" style="fill: var(--color2, #464655)" d="M25.931 16c0 5.485-4.446 9.931-9.931 9.931s-9.931-4.446-9.931-9.931c0-5.485 4.446-9.931 9.931-9.931s9.931 4.446 9.931 9.931z"></path>
<path fill="#ff6b08" style="fill: var(--color3, #ff6b08)" d="M16 0c-8.837 0-16 7.163-16 16s7.163 16 16 16v0c8.837 0 16-7.163 16-16s-7.163-16-16-16v0zM16 2.188c2.451 0 4.438 1.987 4.438 4.438s-1.987 4.438-4.438 4.438v0c-2.451 0-4.438-1.987-4.438-4.438s1.987-4.438 4.438-4.438v0zM7.188 20.438c-2.451 0-4.438-1.987-4.438-4.438s1.987-4.438 4.438-4.438v0c2.451 0 4.438 1.987 4.438 4.438s-1.987 4.438-4.438 4.438v0zM16 29.25c-0.158 0.020-0.34 0.031-0.526 0.031-2.451 0-4.438-1.987-4.438-4.438s1.987-4.438 4.438-4.438c0.185 0 0.368 0.011 0.547 0.033l-0.021-0.002c2.214 0.272 3.912 2.141 3.912 4.406s-1.698 4.134-3.89 4.404l-0.021 0.002zM24.813 20.438c-2.451 0-4.438-1.987-4.438-4.438s1.987-4.438 4.438-4.438v0c2.451 0 4.438 1.987 4.438 4.438s-1.987 4.438-4.438 4.438v0z"></path>
<path fill="#c7cfe2" style="fill: var(--color4, #c7cfe2)" d="M18.206 16c0 1.218-0.988 2.206-2.206 2.206s-2.206-0.988-2.206-2.206c0-1.218 0.988-2.206 2.206-2.206s2.206 0.988 2.206 2.206z"></path>
<path fill="#5b5d6e" style="fill: var(--color1, #5b5d6e)" d="M17.106 16c0 0.611-0.495 1.106-1.106 1.106s-1.106-0.495-1.106-1.106c0-0.611 0.495-1.106 1.106-1.106s1.106 0.495 1.106 1.106z"></path>
<path fill="#cf3b00" style="fill: var(--color4, #cf3b00)" d="M12.688 13.25l-0.375-0.188-6.625-6.625c-0.191-0.093-0.32-0.285-0.32-0.508 0-0.311 0.252-0.563 0.563-0.563 0.223 0 0.415 0.129 0.506 0.317l0.001 0.003 6.625 6.625c0.090 0.099 0.145 0.232 0.145 0.377 0 0.296-0.228 0.538-0.518 0.561l-0.002 0zM25.938 26.5c-0.125 0-0.313-0.063-0.375-0.188l-6.625-6.625c-0.191-0.093-0.32-0.285-0.32-0.508 0-0.311 0.252-0.563 0.563-0.563 0.223 0 0.415 0.129 0.506 0.317l0.001 0.003 6.625 6.625c0.090 0.099 0.145 0.232 0.145 0.377 0 0.296-0.228 0.538-0.518 0.561l-0.002 0zM19.313 13.25c-0.125 0-0.313-0.063-0.375-0.188-0.25-0.188-0.25-0.563 0-0.75l6.625-6.625c0.093-0.191 0.285-0.32 0.508-0.32 0.311 0 0.563 0.252 0.563 0.563 0 0.223-0.129 0.415-0.317 0.506l-0.003 0.001-6.625 6.625-0.375 0.188zM6.063 26.5l-0.375-0.188c-0.25-0.188-0.25-0.563 0-0.75l6.625-6.625c0.093-0.191 0.285-0.32 0.508-0.32 0.311 0 0.563 0.252 0.563 0.563 0 0.223-0.129 0.415-0.317 0.506l-0.003 0.001-6.625 6.625c-0.063 0.125-0.25 0.188-0.375 0.188z"></path>
</symbol>
</defs>
</svg>


